<svg width="50" height="50" viewBox="0 0 50 50" fill="none" xmlns="http://www.w3.org/2000/svg">
<path fill-rule="evenodd" clip-rule="evenodd" d="M24.833 12.8C17.9878 12.8 12.4355 18.3811 12.4355 25.2618C12.4355 30.7664 16.0103 35.43 20.878 37.112C21.4864 37.1884 21.7146 36.8062 21.7146 36.5004C21.7146 36.1945 21.7146 35.43 21.7146 34.3597C18.292 35.1242 17.5314 32.6777 17.5314 32.6777C16.999 31.2251 16.1624 30.8429 16.1624 30.8429C15.0215 30.0783 16.2384 30.0783 16.2384 30.0783C17.4554 30.1548 18.1399 31.378 18.1399 31.378C19.2808 33.2893 21.0301 32.7542 21.7146 32.4484C21.7907 31.6074 22.171 31.0722 22.4752 30.7664C19.7371 30.4606 16.8469 29.3903 16.8469 24.5737C16.8469 23.1976 17.3032 22.1273 18.1399 21.2098C18.0638 20.9805 17.6075 19.6808 18.292 17.9988C18.292 17.9988 19.3568 17.693 21.7146 19.2985C22.7034 18.9927 23.7682 18.9163 24.833 18.9163C25.8978 18.9163 26.9626 19.0692 27.9513 19.2985C30.3091 17.693 31.374 17.9988 31.374 17.9988C32.0585 19.6808 31.6021 20.9805 31.5261 21.2863C32.2866 22.1273 32.8191 23.2741 32.8191 24.6502C32.8191 29.4667 29.9289 30.4606 27.1908 30.7664C27.6471 31.1487 28.0274 31.9132 28.0274 33.06C28.0274 34.7419 28.0274 36.0416 28.0274 36.5004C28.0274 36.8062 28.2556 37.1884 28.864 37.112C33.8078 35.43 37.3065 30.7664 37.3065 25.2618C37.2304 18.3811 31.6782 12.8 24.833 12.8Z" fill="black"/>
</svg>
